<svg xmlns="http://www.w3.org/2000/svg" viewBox="0 0 514 120" width="514" height="120" role="img" aria-label="KOSyncthing+">
  <defs>
    <linearGradient id="kg2" x1="18" y1="18" x2="102" y2="102" gradientUnits="userSpaceOnUse">
      <stop offset="0" stop-color="#00A38C"/><stop offset="1" stop-color="#0A86CF"/>
    </linearGradient>
  </defs>
  <!-- mark -->
  <g fill="none" stroke="url(#kg2)" stroke-width="7.5" stroke-linecap="round">
    <line x1="37" y1="30" x2="37" y2="90"/>
    <line x1="37" y1="60" x2="86" y2="28"/>
    <line x1="37" y1="60" x2="86" y2="92"/>
  </g>
  <g fill="url(#kg2)">
    <circle cx="37" cy="30" r="10"/><circle cx="37" cy="90" r="10"/>
    <circle cx="86" cy="28" r="10"/><circle cx="86" cy="92" r="10"/>
    <circle cx="37" cy="60" r="11.5"/>
  </g>
  <g fill="#0A86CF">
    <rect x="94.5" y="14.2" width="13" height="3.6" rx="1.8"/>
    <rect x="99.2" y="9.5" width="3.6" height="13" rx="1.8"/>
  </g>
  <!-- wordmark as outlines (font-independent; cannot clip) -->
  <g fill="#00A38C">
    <path transform="translate(132.000,76.0) scale(0.02637,-0.02637)" d="M1112 0 606 647 432 514V0H137V1409H432V770L1067 1409H1411L809 813L1460 0Z"/>
    <path transform="translate(170.497,76.0) scale(0.02637,-0.02637)" d="M1507 711Q1507 491 1420.0 324.0Q1333 157 1171.0 68.5Q1009 -20 793 -20Q461 -20 272.5 175.5Q84 371 84 711Q84 1050 272.0 1240.0Q460 1430 795 1430Q1130 1430 1318.5 1238.0Q1507 1046 1507 711ZM1206 711Q1206 939 1098.0 1068.5Q990 1198 795 1198Q597 1198 489.0 1069.5Q381 941 381 711Q381 479 491.5 345.5Q602 212 793 212Q991 212 1098.5 342.0Q1206 472 1206 711Z"/>
  </g>
  <g fill="#0A86CF">
    <path transform="translate(212.000,76.0) scale(0.02637,-0.02637)" d="M1286 406Q1286 199 1132.5 89.5Q979 -20 682 -20Q411 -20 257.0 76.0Q103 172 59 367L344 414Q373 302 457.0 251.5Q541 201 690 201Q999 201 999 389Q999 449 963.5 488.0Q928 527 863.5 553.0Q799 579 616 616Q458 653 396.0 675.5Q334 698 284.0 728.5Q234 759 199.0 802.0Q164 845 144.5 903.0Q125 961 125 1036Q125 1227 268.5 1328.5Q412 1430 686 1430Q948 1430 1079.5 1348.0Q1211 1266 1249 1077L963 1038Q941 1129 873.5 1175.0Q806 1221 680 1221Q412 1221 412 1053Q412 998 440.5 963.0Q469 928 525.0 903.5Q581 879 752 842Q955 799 1042.5 762.5Q1130 726 1181.0 677.5Q1232 629 1259.0 561.5Q1286 494 1286 406Z"/>
    <path transform="translate(247.518,76.0) scale(0.02637,-0.02637)" d="M283 -425Q182 -425 106 -412V-212Q159 -220 203 -220Q263 -220 302.5 -201.0Q342 -182 373.5 -138.0Q405 -94 444 11L16 1082H313L483 575Q523 466 584 241L609 336L674 571L834 1082H1128L700 -57Q614 -265 521.5 -345.0Q429 -425 283 -425Z"/>
    <path transform="translate(277.050,76.0) scale(0.02637,-0.02637)" d="M844 0V607Q844 892 651 892Q549 892 486.5 804.5Q424 717 424 580V0H143V840Q143 927 140.5 982.5Q138 1038 135 1082H403Q406 1063 411.0 980.5Q416 898 416 867H420Q477 991 563.0 1047.0Q649 1103 768 1103Q940 1103 1032.0 997.0Q1124 891 1124 687V0Z"/>
    <path transform="translate(309.535,76.0) scale(0.02637,-0.02637)" d="M594 -20Q348 -20 214.0 126.5Q80 273 80 535Q80 803 215.0 952.5Q350 1102 598 1102Q789 1102 914.0 1006.0Q1039 910 1071 741L788 727Q776 810 728.0 859.5Q680 909 592 909Q375 909 375 546Q375 172 596 172Q676 172 730.0 222.5Q784 273 797 373L1079 360Q1064 249 999.5 162.0Q935 75 830.0 27.5Q725 -20 594 -20Z"/>
    <path transform="translate(339.067,76.0) scale(0.02637,-0.02637)" d="M420 -18Q296 -18 229.0 49.5Q162 117 162 254V892H25V1082H176L264 1336H440V1082H645V892H440V330Q440 251 470.0 213.5Q500 176 563 176Q596 176 657 190V16Q553 -18 420 -18Z"/>
    <path transform="translate(356.550,76.0) scale(0.02637,-0.02637)" d="M420 866Q477 990 563.0 1046.0Q649 1102 768 1102Q940 1102 1032.0 996.0Q1124 890 1124 686V0H844V606Q844 891 651 891Q549 891 486.5 803.5Q424 716 424 579V0H143V1484H424V1079Q424 970 416 866Z"/>
    <path transform="translate(389.035,76.0) scale(0.02637,-0.02637)" d="M143 1277V1484H424V1277ZM143 0V1082H424V0Z"/>
    <path transform="translate(403.538,76.0) scale(0.02637,-0.02637)" d="M844 0V607Q844 892 651 892Q549 892 486.5 804.5Q424 717 424 580V0H143V840Q143 927 140.5 982.5Q138 1038 135 1082H403Q406 1063 411.0 980.5Q416 898 416 867H420Q477 991 563.0 1047.0Q649 1103 768 1103Q940 1103 1032.0 997.0Q1124 891 1124 687V0Z"/>
    <path transform="translate(436.023,76.0) scale(0.02637,-0.02637)" d="M596 -434Q398 -434 277.5 -358.5Q157 -283 129 -143L410 -110Q425 -175 474.5 -212.0Q524 -249 604 -249Q721 -249 775.0 -177.0Q829 -105 829 37V94L831 201H829Q736 2 481 2Q292 2 188.0 144.0Q84 286 84 550Q84 815 191.0 959.0Q298 1103 502 1103Q738 1103 829 908H834Q834 943 838.5 1003.0Q843 1063 848 1082H1114Q1108 974 1108 832V33Q1108 -198 977.0 -316.0Q846 -434 596 -434ZM831 556Q831 723 771.5 816.5Q712 910 602 910Q377 910 377 550Q377 197 600 197Q712 197 771.5 290.5Q831 384 831 556Z"/>
  </g>
  <g fill="#00A38C">
    <path transform="translate(468.509,76.0) scale(0.02637,-0.02637)" d="M711 569V161H485V569H86V793H485V1201H711V793H1113V569Z"/>
  </g>
</svg>
